<svg xmlns="http://www.w3.org/2000/svg" viewBox="0 0 489.921 489.921">
  <path fill="#94e2d5" d="M455.767,34.296c-24.1-24.1-48.6-38.9-54.4-33c-4.7,4.7,3.9,21.8,20.6,40.8l-90.2,90.2l-32.2-32.3l-17.9,17.9l91.7,91.3l17.9-17.9l-33.8-33.4l90.2-89.8c19,16.3,36.1,25.3,40.8,20.6C494.667,82.496,479.867,58.396,455.767,34.296z"/>
  <polygon fill="#94e2d5" points="366.767,69.696 346.967,50.196 312.367,84.796 331.767,104.296"/>
  <polygon fill="#94e2d5" points="385.467,157.896 405.267,177.296 439.867,142.696 420.067,123.296"/>
  <polygon fill="#a6e3a1" points="100.967,295.496 193.867,388.396 359.367,223.196 266.167,130.296"/>
  <polygon fill="#a6e3a1" points="93.167,343.296 147.167,396.896 161.167,383.296 107.167,329.296"/>
  <path fill="#89b4fa" d="M82.267,382.896l5.4,5.4l-84.7,84.7c-3.9,3.9-3.9,10.1,0,14l0,0c3.9,3.9,10.1,3.9,14,0l84.7-84.7l5.4,5.4l11.3-11.3l-25.3-24.9L82.267,382.896z"/>
</svg>
